<svg xmlns="http://www.w3.org/2000/svg" xmlns:xlink="http://www.w3.org/1999/xlink" viewBox="0 0 1150 950">
<style>
  .actor { fill: #f5f5f5; stroke: #333; stroke-width: 1px; }
  .actor-line { stroke: #333; stroke-width: 1px; }
  .messageLine0 { stroke: #333; stroke-width: 1.5px; }
  .messageLine1 { stroke: #333; stroke-width: 1.5px; stroke-dasharray: 2, 2; }
  .messageText { font-family: 'Segoe UI', Tahoma, Geneva, Verdana, sans-serif; font-size: 12px; fill: #333; }
  .actor-text { font-family: 'Segoe UI', Tahoma, Geneva, Verdana, sans-serif; font-size: 12px; text-anchor: middle; fill: #333; }
  .note { fill: #ffffcc; stroke: #999; stroke-width: 1px; }
  .noteText { font-family: 'Segoe UI', Tahoma, Geneva, Verdana, sans-serif; font-size: 12px; fill: #333; }
  .loopLine { stroke: #333; stroke-width: 1px; stroke-dasharray: 2, 2; }
  .loopText { font-family: 'Segoe UI', Tahoma, Geneva, Verdana, sans-serif; font-size: 12px; fill: #333; }
</style>

<!-- 모든 액터 및 참여자 정의 -->
<g class="actor">
  <rect x="50" y="20" width="80" height="40" rx="5" ry="5" class="actor" />
  <text x="90" y="42" class="actor-text">사용자</text>
</g>

<g class="actor">
  <rect x="180" y="20" width="90" height="40" rx="5" ry="5" class="actor" />
  <text x="225" y="42" class="actor-text">article 서비스</text>
</g>

<g class="actor">
  <rect x="320" y="20" width="90" height="40" rx="5" ry="5" class="actor" />
  <text x="365" y="42" class="actor-text">article-read</text>
</g>

<g class="actor">
  <rect x="460" y="20" width="80" height="40" rx="5" ry="5" class="actor" />
  <text x="500" y="42" class="actor-text">Redis</text>
</g>

<g class="actor">
  <rect x="590" y="20" width="80" height="40" rx="5" ry="5" class="actor" />
  <text x="630" y="42" class="actor-text">MySQL</text>
</g>

<g class="actor">
  <rect x="720" y="20" width="90" height="40" rx="5" ry="5" class="actor" />
  <text x="765" y="42" class="actor-text">view 서비스</text>
</g>

<g class="actor">
  <rect x="860" y="20" width="80" height="40" rx="5" ry="5" class="actor" />
  <text x="900" y="42" class="actor-text">Kafka</text>
</g>

<g class="actor">
  <rect x="990" y="20" width="90" height="40" rx="5" ry="5" class="actor" />
  <text x="1035" y="42" class="actor-text">like 서비스</text>
</g>

<!-- 액터 및 참여자 라인 -->
<line x1="90" y1="60" x2="90" y2="900" class="actor-line" />
<line x1="225" y1="60" x2="225" y2="900" class="actor-line" />
<line x1="365" y1="60" x2="365" y2="900" class="actor-line" />
<line x1="500" y1="60" x2="500" y2="900" class="actor-line" />
<line x1="630" y1="60" x2="630" y2="900" class="actor-line" />
<line x1="765" y1="60" x2="765" y2="900" class="actor-line" />
<line x1="900" y1="60" x2="900" y2="900" class="actor-line" />
<line x1="1035" y1="60" x2="1035" y2="900" class="actor-line" />

<!-- 메시지 - 게시글 조회 시나리오 -->
<line x1="90" y1="100" x2="365" y2="100" class="messageLine0" marker-end="url(#arrowhead)" />
<text x="225" y="90" class="messageText">게시글 조회</text>

<line x1="365" y1="150" x2="500" y2="150" class="messageLine0" marker-end="url(#arrowhead)" />
<text x="430" y="140" class="messageText">캐시 확인</text>

<!-- 캐시 없음 조건부 시나리오 -->
<rect x="200" y="170" width="500" height="120" rx="5" ry="5" style="fill: none; stroke: #999; stroke-dasharray: 2, 2;" />
<text x="225" y="190" class="loopText">캐시 없음</text>

<line x1="365" y1="220" x2="630" y2="220" class="messageLine0" marker-end="url(#arrowhead)" />
<text x="500" y="210" class="messageText">조회</text>

<line x1="630" y1="250" x2="365" y2="250" class="messageLine1" marker-end="url(#arrowhead)" />
<text x="500" y="240" class="messageText">데이터 반환</text>

<line x1="365" y1="280" x2="500" y2="280" class="messageLine0" marker-end="url(#arrowhead)" />
<text x="430" y="270" class="messageText">캐시 저장</text>

<!-- 조회수 증가 시나리오 -->
<line x1="365" y1="320" x2="765" y2="320" class="messageLine0" marker-end="url(#arrowhead)" />
<text x="565" y="310" class="messageText">조회수 증가 요청</text>

<line x1="765" y1="370" x2="500" y2="370" class="messageLine0" marker-end="url(#arrowhead)" />
<text x="630" y="360" class="messageText">중복 확인</text>

<!-- 중복 아님 조건부 시나리오 -->
<rect x="540" y="390" width="400" height="120" rx="5" ry="5" style="fill: none; stroke: #999; stroke-dasharray: 2, 2;" />
<text x="565" y="410" class="loopText">중복 아님</text>

<line x1="765" y1="440" x2="630" y2="440" class="messageLine0" marker-end="url(#arrowhead)" />
<text x="700" y="430" class="messageText">저장</text>

<line x1="765" y1="470" x2="900" y2="470" class="messageLine0" marker-end="url(#arrowhead)" />
<text x="830" y="460" class="messageText">이벤트 발행</text>

<!-- 좋아요 시나리오 -->
<line x1="90" y1="530" x2="1035" y2="530" class="messageLine0" marker-end="url(#arrowhead)" />
<text x="560" y="520" class="messageText">좋아요 클릭</text>

<line x1="1035" y1="580" x2="630" y2="580" class="messageLine0" marker-end="url(#arrowhead)" />
<text x="830" y="570" class="messageText">저장</text>

<line x1="1035" y1="630" x2="500" y2="630" class="messageLine0" marker-end="url(#arrowhead)" />
<text x="765" y="620" class="messageText">카운터 증가</text>

<line x1="1035" y1="680" x2="900" y2="680" class="messageLine0" marker-end="url(#arrowhead)" />
<text x="965" y="670" class="messageText">이벤트 발행</text>

<!-- 액터 및 참여자 재정의 -->
<g class="actor">
  <rect x="50" y="910" width="80" height="40" rx="5" ry="5" class="actor" />
  <text x="90" y="932" class="actor-text">사용자</text>
</g>

<g class="actor">
  <rect x="180" y="910" width="90" height="40" rx="5" ry="5" class="actor" />
  <text x="225" y="932" class="actor-text">article 서비스</text>
</g>

<g class="actor">
  <rect x="320" y="910" width="90" height="40" rx="5" ry="5" class="actor" />
  <text x="365" y="932" class="actor-text">article-read</text>
</g>

<g class="actor">
  <rect x="460" y="910" width="80" height="40" rx="5" ry="5" class="actor" />
  <text x="500" y="932" class="actor-text">Redis</text>
</g>

<g class="actor">
  <rect x="590" y="910" width="80" height="40" rx="5" ry="5" class="actor" />
  <text x="630" y="932" class="actor-text">MySQL</text>
</g>

<g class="actor">
  <rect x="720" y="910" width="90" height="40" rx="5" ry="5" class="actor" />
  <text x="765" y="932" class="actor-text">view 서비스</text>
</g>

<g class="actor">
  <rect x="860" y="910" width="80" height="40" rx="5" ry="5" class="actor" />
  <text x="900" y="932" class="actor-text">Kafka</text>
</g>

<g class="actor">
  <rect x="990" y="910" width="90" height="40" rx="5" ry="5" class="actor" />
  <text x="1035" y="932" class="actor-text">like 서비스</text>
</g>

<!-- 마커 정의 -->
<defs>
  <marker id="arrowhead" viewBox="0 0 10 10" refX="9" refY="5" markerUnits="strokeWidth" markerWidth="8" markerHeight="6" orient="auto">
    <path d="M 0 0 L 10 5 L 0 10 z" fill="#333" />
  </marker>
</defs>
</svg>